<mxfile host="app.diagrams.net" modified="2023-10-29T14:59:28.546Z" agent="Mozilla/5.0 (Windows NT 10.0; Win64; x64) AppleWebKit/537.36 (KHTML, like Gecko) Chrome/118.0.0.0 Safari/537.36" etag="pIDdwdlONegYmompga0N" version="22.0.8" type="device">
  <diagram id="C5RBs43oDa-KdzZeNtuy" name="Page-1">
    <mxGraphModel dx="2478" dy="887" grid="0" gridSize="10" guides="1" tooltips="1" connect="1" arrows="1" fold="0" page="1" pageScale="1" pageWidth="827" pageHeight="1169" math="0" shadow="0">
      <root>
        <mxCell id="WIyWlLk6GJQsqaUBKTNV-0" />
        <mxCell id="WIyWlLk6GJQsqaUBKTNV-1" parent="WIyWlLk6GJQsqaUBKTNV-0" />
        <mxCell id="cfhBdmf0QNQa2BFEC72Y-0" value="Независимая&amp;nbsp;&lt;br&gt;сущность" style="rounded=0;whiteSpace=wrap;html=1;" parent="WIyWlLk6GJQsqaUBKTNV-1" vertex="1">
          <mxGeometry x="-655" y="41" width="120" height="60" as="geometry" />
        </mxCell>
        <mxCell id="cfhBdmf0QNQa2BFEC72Y-1" value="Зависимая сущность" style="rounded=1;whiteSpace=wrap;html=1;" parent="WIyWlLk6GJQsqaUBKTNV-1" vertex="1">
          <mxGeometry x="-657" y="155" width="120" height="60" as="geometry" />
        </mxCell>
        <mxCell id="cfhBdmf0QNQa2BFEC72Y-22" value="Независимая сущность" style="swimlane;fontStyle=0;childLayout=stackLayout;horizontal=1;startSize=24;horizontalStack=0;resizeParent=1;resizeParentMax=0;resizeLast=0;collapsible=1;marginBottom=0;whiteSpace=wrap;html=1;aspect=fixed;swimlaneBody=1;swimlaneHead=1;rounded=0;" parent="WIyWlLk6GJQsqaUBKTNV-1" vertex="1">
          <mxGeometry x="-692" y="575" width="140" height="122" as="geometry" />
        </mxCell>
        <mxCell id="cfhBdmf0QNQa2BFEC72Y-23" value="Item 1" style="text;strokeColor=none;fillColor=none;align=left;verticalAlign=middle;spacingLeft=4;spacingRight=4;overflow=hidden;points=[[0,0.5],[1,0.5]];portConstraint=eastwest;rotatable=1;whiteSpace=wrap;html=1;movable=1;resizable=1;deletable=1;editable=1;locked=0;connectable=1;" parent="cfhBdmf0QNQa2BFEC72Y-22" vertex="1">
          <mxGeometry y="24" width="140" height="30" as="geometry" />
        </mxCell>
        <mxCell id="cfhBdmf0QNQa2BFEC72Y-38" value="" style="line;strokeWidth=1;fillColor=none;align=left;verticalAlign=middle;spacingTop=-1;spacingLeft=3;spacingRight=3;rotatable=0;labelPosition=right;points=[];portConstraint=eastwest;strokeColor=inherit;fontFamily=Helvetica;fontSize=12;fontColor=default;startSize=20;html=1;" parent="cfhBdmf0QNQa2BFEC72Y-22" vertex="1">
          <mxGeometry y="54" width="140" height="8" as="geometry" />
        </mxCell>
        <mxCell id="cfhBdmf0QNQa2BFEC72Y-24" value="Item 2" style="text;strokeColor=none;fillColor=none;align=left;verticalAlign=middle;spacingLeft=4;spacingRight=4;overflow=hidden;points=[[0,0.5],[1,0.5]];portConstraint=eastwest;rotatable=0;whiteSpace=wrap;html=1;" parent="cfhBdmf0QNQa2BFEC72Y-22" vertex="1">
          <mxGeometry y="62" width="140" height="30" as="geometry" />
        </mxCell>
        <mxCell id="cfhBdmf0QNQa2BFEC72Y-25" value="Item 3" style="text;strokeColor=none;fillColor=none;align=left;verticalAlign=middle;spacingLeft=4;spacingRight=4;overflow=hidden;points=[[0,0.5],[1,0.5]];portConstraint=eastwest;rotatable=0;whiteSpace=wrap;html=1;" parent="cfhBdmf0QNQa2BFEC72Y-22" vertex="1">
          <mxGeometry y="92" width="140" height="30" as="geometry" />
        </mxCell>
        <mxCell id="cfhBdmf0QNQa2BFEC72Y-40" value="Зависимая сущность" style="swimlane;fontStyle=0;childLayout=stackLayout;horizontal=1;startSize=24;horizontalStack=0;resizeParent=1;resizeParentMax=0;resizeLast=0;collapsible=1;marginBottom=0;whiteSpace=wrap;html=1;aspect=fixed;swimlaneBody=1;swimlaneHead=1;rounded=1;" parent="WIyWlLk6GJQsqaUBKTNV-1" vertex="1">
          <mxGeometry x="-686" y="706" width="140" height="122" as="geometry" />
        </mxCell>
        <mxCell id="cfhBdmf0QNQa2BFEC72Y-41" value="Item 1" style="text;strokeColor=none;fillColor=none;align=left;verticalAlign=middle;spacingLeft=4;spacingRight=4;overflow=hidden;points=[[0,0.5],[1,0.5]];portConstraint=eastwest;rotatable=1;whiteSpace=wrap;html=1;movable=1;resizable=1;deletable=1;editable=1;locked=0;connectable=1;" parent="cfhBdmf0QNQa2BFEC72Y-40" vertex="1">
          <mxGeometry y="24" width="140" height="30" as="geometry" />
        </mxCell>
        <mxCell id="cfhBdmf0QNQa2BFEC72Y-42" value="" style="line;strokeWidth=1;fillColor=none;align=left;verticalAlign=middle;spacingTop=-1;spacingLeft=3;spacingRight=3;rotatable=0;labelPosition=right;points=[];portConstraint=eastwest;strokeColor=inherit;fontFamily=Helvetica;fontSize=12;fontColor=default;startSize=20;html=1;" parent="cfhBdmf0QNQa2BFEC72Y-40" vertex="1">
          <mxGeometry y="54" width="140" height="8" as="geometry" />
        </mxCell>
        <mxCell id="cfhBdmf0QNQa2BFEC72Y-43" value="Item 2" style="text;strokeColor=none;fillColor=none;align=left;verticalAlign=middle;spacingLeft=4;spacingRight=4;overflow=hidden;points=[[0,0.5],[1,0.5]];portConstraint=eastwest;rotatable=0;whiteSpace=wrap;html=1;" parent="cfhBdmf0QNQa2BFEC72Y-40" vertex="1">
          <mxGeometry y="62" width="140" height="30" as="geometry" />
        </mxCell>
        <mxCell id="cfhBdmf0QNQa2BFEC72Y-44" value="Item 3" style="text;strokeColor=none;fillColor=none;align=left;verticalAlign=middle;spacingLeft=4;spacingRight=4;overflow=hidden;points=[[0,0.5],[1,0.5]];portConstraint=eastwest;rotatable=0;whiteSpace=wrap;html=1;" parent="cfhBdmf0QNQa2BFEC72Y-40" vertex="1">
          <mxGeometry y="92" width="140" height="30" as="geometry" />
        </mxCell>
        <mxCell id="cfhBdmf0QNQa2BFEC72Y-45" value="Task" style="swimlane;fontStyle=0;childLayout=stackLayout;horizontal=1;startSize=24;horizontalStack=0;resizeParent=1;resizeParentMax=0;resizeLast=0;collapsible=1;marginBottom=0;whiteSpace=wrap;html=1;aspect=fixed;swimlaneBody=1;swimlaneHead=1;rounded=1;fontSize=16;align=left;" parent="WIyWlLk6GJQsqaUBKTNV-1" vertex="1">
          <mxGeometry x="1179.32" y="338" width="130.36" height="392" as="geometry" />
        </mxCell>
        <mxCell id="cfhBdmf0QNQa2BFEC72Y-46" value="&lt;font style=&quot;font-size: 16px;&quot;&gt;task_id&lt;/font&gt;" style="text;strokeColor=none;fillColor=none;align=left;verticalAlign=middle;spacingLeft=4;spacingRight=4;overflow=hidden;points=[[0,0.5],[1,0.5]];portConstraint=eastwest;rotatable=1;whiteSpace=wrap;html=1;movable=1;resizable=1;deletable=1;editable=1;locked=0;connectable=1;fontSize=16;" parent="cfhBdmf0QNQa2BFEC72Y-45" vertex="1">
          <mxGeometry y="24" width="130.36" height="30" as="geometry" />
        </mxCell>
        <mxCell id="cfhBdmf0QNQa2BFEC72Y-68" value="task_type_id" style="text;strokeColor=none;fillColor=none;align=left;verticalAlign=middle;spacingLeft=4;spacingRight=4;overflow=hidden;points=[[0,0.5],[1,0.5]];portConstraint=eastwest;rotatable=0;whiteSpace=wrap;html=1;fontSize=16;" parent="cfhBdmf0QNQa2BFEC72Y-45" vertex="1">
          <mxGeometry y="54" width="130.36" height="30" as="geometry" />
        </mxCell>
        <mxCell id="cfhBdmf0QNQa2BFEC72Y-47" value="" style="line;strokeWidth=1;fillColor=none;align=left;verticalAlign=middle;spacingTop=-1;spacingLeft=3;spacingRight=3;rotatable=0;labelPosition=right;points=[];portConstraint=eastwest;strokeColor=inherit;fontFamily=Helvetica;fontSize=16;fontColor=default;startSize=20;html=1;" parent="cfhBdmf0QNQa2BFEC72Y-45" vertex="1">
          <mxGeometry y="84" width="130.36" height="8" as="geometry" />
        </mxCell>
        <mxCell id="cfhBdmf0QNQa2BFEC72Y-49" value="reporter_id" style="text;strokeColor=none;fillColor=none;align=left;verticalAlign=middle;spacingLeft=4;spacingRight=4;overflow=hidden;points=[[0,0.5],[1,0.5]];portConstraint=eastwest;rotatable=0;whiteSpace=wrap;html=1;fontSize=16;" parent="cfhBdmf0QNQa2BFEC72Y-45" vertex="1">
          <mxGeometry y="92" width="130.36" height="30" as="geometry" />
        </mxCell>
        <mxCell id="cfhBdmf0QNQa2BFEC72Y-69" value="assignee_id" style="text;strokeColor=none;fillColor=none;align=left;verticalAlign=middle;spacingLeft=4;spacingRight=4;overflow=hidden;points=[[0,0.5],[1,0.5]];portConstraint=eastwest;rotatable=0;whiteSpace=wrap;html=1;fontSize=16;" parent="cfhBdmf0QNQa2BFEC72Y-45" vertex="1">
          <mxGeometry y="122" width="130.36" height="30" as="geometry" />
        </mxCell>
        <mxCell id="cfhBdmf0QNQa2BFEC72Y-48" value="project_id" style="text;strokeColor=none;fillColor=none;align=left;verticalAlign=middle;spacingLeft=4;spacingRight=4;overflow=hidden;points=[[0,0.5],[1,0.5]];portConstraint=eastwest;rotatable=0;whiteSpace=wrap;html=1;fontSize=16;" parent="cfhBdmf0QNQa2BFEC72Y-45" vertex="1">
          <mxGeometry y="152" width="130.36" height="30" as="geometry" />
        </mxCell>
        <mxCell id="cfhBdmf0QNQa2BFEC72Y-67" value="creation_date" style="text;strokeColor=none;fillColor=none;align=left;verticalAlign=middle;spacingLeft=4;spacingRight=4;overflow=hidden;points=[[0,0.5],[1,0.5]];portConstraint=eastwest;rotatable=0;whiteSpace=wrap;html=1;fontSize=16;" parent="cfhBdmf0QNQa2BFEC72Y-45" vertex="1">
          <mxGeometry y="182" width="130.36" height="30" as="geometry" />
        </mxCell>
        <mxCell id="cfhBdmf0QNQa2BFEC72Y-66" value="time_spent" style="text;strokeColor=none;fillColor=none;align=left;verticalAlign=middle;spacingLeft=4;spacingRight=4;overflow=hidden;points=[[0,0.5],[1,0.5]];portConstraint=eastwest;rotatable=0;whiteSpace=wrap;html=1;fontSize=16;" parent="cfhBdmf0QNQa2BFEC72Y-45" vertex="1">
          <mxGeometry y="212" width="130.36" height="30" as="geometry" />
        </mxCell>
        <mxCell id="cfhBdmf0QNQa2BFEC72Y-65" value="time_given" style="text;strokeColor=none;fillColor=none;align=left;verticalAlign=middle;spacingLeft=4;spacingRight=4;overflow=hidden;points=[[0,0.5],[1,0.5]];portConstraint=eastwest;rotatable=0;whiteSpace=wrap;html=1;fontSize=16;" parent="cfhBdmf0QNQa2BFEC72Y-45" vertex="1">
          <mxGeometry y="242" width="130.36" height="30" as="geometry" />
        </mxCell>
        <mxCell id="cfhBdmf0QNQa2BFEC72Y-64" value="num_in_project" style="text;strokeColor=none;fillColor=none;align=left;verticalAlign=middle;spacingLeft=4;spacingRight=4;overflow=hidden;points=[[0,0.5],[1,0.5]];portConstraint=eastwest;rotatable=0;whiteSpace=wrap;html=1;fontSize=16;" parent="cfhBdmf0QNQa2BFEC72Y-45" vertex="1">
          <mxGeometry y="272" width="130.36" height="30" as="geometry" />
        </mxCell>
        <mxCell id="cfhBdmf0QNQa2BFEC72Y-63" value="name" style="text;strokeColor=none;fillColor=none;align=left;verticalAlign=middle;spacingLeft=4;spacingRight=4;overflow=hidden;points=[[0,0.5],[1,0.5]];portConstraint=eastwest;rotatable=0;whiteSpace=wrap;html=1;fontSize=16;" parent="cfhBdmf0QNQa2BFEC72Y-45" vertex="1">
          <mxGeometry y="302" width="130.36" height="30" as="geometry" />
        </mxCell>
        <mxCell id="cfhBdmf0QNQa2BFEC72Y-62" value="description" style="text;strokeColor=none;fillColor=none;align=left;verticalAlign=middle;spacingLeft=4;spacingRight=4;overflow=hidden;points=[[0,0.5],[1,0.5]];portConstraint=eastwest;rotatable=0;whiteSpace=wrap;html=1;fontSize=16;" parent="cfhBdmf0QNQa2BFEC72Y-45" vertex="1">
          <mxGeometry y="332" width="130.36" height="30" as="geometry" />
        </mxCell>
        <mxCell id="cfhBdmf0QNQa2BFEC72Y-61" value="status" style="text;strokeColor=none;fillColor=none;align=left;verticalAlign=middle;spacingLeft=4;spacingRight=4;overflow=hidden;points=[[0,0.5],[1,0.5]];portConstraint=eastwest;rotatable=0;whiteSpace=wrap;html=1;fontSize=16;" parent="cfhBdmf0QNQa2BFEC72Y-45" vertex="1">
          <mxGeometry y="362" width="130.36" height="30" as="geometry" />
        </mxCell>
        <mxCell id="cfhBdmf0QNQa2BFEC72Y-50" value="" style="swimlane;fontStyle=0;childLayout=stackLayout;horizontal=1;startSize=0;horizontalStack=0;resizeParent=1;resizeParentMax=0;resizeLast=0;collapsible=1;marginBottom=0;whiteSpace=wrap;html=1;aspect=fixed;swimlaneBody=1;swimlaneHead=1;rounded=0;" parent="WIyWlLk6GJQsqaUBKTNV-1" vertex="1">
          <mxGeometry x="-698" y="293" width="140" height="98" as="geometry" />
        </mxCell>
        <mxCell id="cfhBdmf0QNQa2BFEC72Y-51" value="Item 1" style="text;strokeColor=none;fillColor=none;align=left;verticalAlign=middle;spacingLeft=4;spacingRight=4;overflow=hidden;points=[[0,0.5],[1,0.5]];portConstraint=eastwest;rotatable=1;whiteSpace=wrap;html=1;movable=1;resizable=1;deletable=1;editable=1;locked=0;connectable=1;" parent="cfhBdmf0QNQa2BFEC72Y-50" vertex="1">
          <mxGeometry width="140" height="30" as="geometry" />
        </mxCell>
        <mxCell id="cfhBdmf0QNQa2BFEC72Y-52" value="" style="line;strokeWidth=1;fillColor=none;align=left;verticalAlign=middle;spacingTop=-1;spacingLeft=3;spacingRight=3;rotatable=0;labelPosition=right;points=[];portConstraint=eastwest;strokeColor=inherit;fontFamily=Helvetica;fontSize=12;fontColor=default;startSize=20;html=1;" parent="cfhBdmf0QNQa2BFEC72Y-50" vertex="1">
          <mxGeometry y="30" width="140" height="8" as="geometry" />
        </mxCell>
        <mxCell id="cfhBdmf0QNQa2BFEC72Y-53" value="Item 2" style="text;strokeColor=none;fillColor=none;align=left;verticalAlign=middle;spacingLeft=4;spacingRight=4;overflow=hidden;points=[[0,0.5],[1,0.5]];portConstraint=eastwest;rotatable=0;whiteSpace=wrap;html=1;" parent="cfhBdmf0QNQa2BFEC72Y-50" vertex="1">
          <mxGeometry y="38" width="140" height="30" as="geometry" />
        </mxCell>
        <mxCell id="cfhBdmf0QNQa2BFEC72Y-54" value="Item 3" style="text;strokeColor=none;fillColor=none;align=left;verticalAlign=middle;spacingLeft=4;spacingRight=4;overflow=hidden;points=[[0,0.5],[1,0.5]];portConstraint=eastwest;rotatable=0;whiteSpace=wrap;html=1;" parent="cfhBdmf0QNQa2BFEC72Y-50" vertex="1">
          <mxGeometry y="68" width="140" height="30" as="geometry" />
        </mxCell>
        <mxCell id="cfhBdmf0QNQa2BFEC72Y-55" value="Зависимая сущность" style="swimlane;fontStyle=0;childLayout=stackLayout;horizontal=1;startSize=24;horizontalStack=0;resizeParent=1;resizeParentMax=0;resizeLast=0;collapsible=1;marginBottom=0;whiteSpace=wrap;html=1;aspect=fixed;swimlaneBody=1;swimlaneHead=1;rounded=1;" parent="WIyWlLk6GJQsqaUBKTNV-1" vertex="1">
          <mxGeometry x="-696" y="411" width="140" height="122" as="geometry" />
        </mxCell>
        <mxCell id="cfhBdmf0QNQa2BFEC72Y-56" value="Item 1" style="text;strokeColor=none;fillColor=none;align=left;verticalAlign=middle;spacingLeft=4;spacingRight=4;overflow=hidden;points=[[0,0.5],[1,0.5]];portConstraint=eastwest;rotatable=1;whiteSpace=wrap;html=1;movable=1;resizable=1;deletable=1;editable=1;locked=0;connectable=1;" parent="cfhBdmf0QNQa2BFEC72Y-55" vertex="1">
          <mxGeometry y="24" width="140" height="30" as="geometry" />
        </mxCell>
        <mxCell id="cfhBdmf0QNQa2BFEC72Y-57" value="" style="line;strokeWidth=1;fillColor=none;align=left;verticalAlign=middle;spacingTop=-1;spacingLeft=3;spacingRight=3;rotatable=0;labelPosition=right;points=[];portConstraint=eastwest;strokeColor=inherit;fontFamily=Helvetica;fontSize=12;fontColor=default;startSize=20;html=1;" parent="cfhBdmf0QNQa2BFEC72Y-55" vertex="1">
          <mxGeometry y="54" width="140" height="8" as="geometry" />
        </mxCell>
        <mxCell id="cfhBdmf0QNQa2BFEC72Y-58" value="Item 2" style="text;strokeColor=none;fillColor=none;align=left;verticalAlign=middle;spacingLeft=4;spacingRight=4;overflow=hidden;points=[[0,0.5],[1,0.5]];portConstraint=eastwest;rotatable=0;whiteSpace=wrap;html=1;" parent="cfhBdmf0QNQa2BFEC72Y-55" vertex="1">
          <mxGeometry y="62" width="140" height="30" as="geometry" />
        </mxCell>
        <mxCell id="cfhBdmf0QNQa2BFEC72Y-59" value="Item 3" style="text;strokeColor=none;fillColor=none;align=left;verticalAlign=middle;spacingLeft=4;spacingRight=4;overflow=hidden;points=[[0,0.5],[1,0.5]];portConstraint=eastwest;rotatable=0;whiteSpace=wrap;html=1;" parent="cfhBdmf0QNQa2BFEC72Y-55" vertex="1">
          <mxGeometry y="92" width="140" height="30" as="geometry" />
        </mxCell>
        <mxCell id="cfhBdmf0QNQa2BFEC72Y-60" value="Независимая сущность" style="text;html=1;align=center;verticalAlign=middle;resizable=0;points=[];autosize=1;strokeColor=none;fillColor=none;fontSize=12;fontFamily=Helvetica;fontColor=default;" parent="WIyWlLk6GJQsqaUBKTNV-1" vertex="1">
          <mxGeometry x="-707" y="267" width="149" height="26" as="geometry" />
        </mxCell>
        <mxCell id="cfhBdmf0QNQa2BFEC72Y-70" value="Holidays" style="swimlane;fontStyle=0;childLayout=stackLayout;horizontal=1;startSize=24;horizontalStack=0;resizeParent=1;resizeParentMax=0;resizeLast=0;collapsible=1;marginBottom=0;whiteSpace=wrap;html=1;aspect=fixed;swimlaneBody=1;swimlaneHead=1;rounded=0;fontSize=16;align=left;" parent="WIyWlLk6GJQsqaUBKTNV-1" vertex="1">
          <mxGeometry x="1488" y="413" width="140" height="182" as="geometry" />
        </mxCell>
        <mxCell id="cfhBdmf0QNQa2BFEC72Y-71" value="holidays_id" style="text;strokeColor=none;fillColor=none;align=left;verticalAlign=middle;spacingLeft=4;spacingRight=4;overflow=hidden;points=[[0,0.5],[1,0.5]];portConstraint=eastwest;rotatable=1;whiteSpace=wrap;html=1;movable=1;resizable=1;deletable=1;editable=1;locked=0;connectable=1;fontSize=16;" parent="cfhBdmf0QNQa2BFEC72Y-70" vertex="1">
          <mxGeometry y="24" width="140" height="30" as="geometry" />
        </mxCell>
        <mxCell id="cfhBdmf0QNQa2BFEC72Y-72" value="" style="line;strokeWidth=1;fillColor=none;align=left;verticalAlign=middle;spacingTop=-1;spacingLeft=3;spacingRight=3;rotatable=0;labelPosition=right;points=[];portConstraint=eastwest;strokeColor=inherit;fontFamily=Helvetica;fontSize=16;fontColor=default;startSize=20;html=1;" parent="cfhBdmf0QNQa2BFEC72Y-70" vertex="1">
          <mxGeometry y="54" width="140" height="8" as="geometry" />
        </mxCell>
        <mxCell id="cfhBdmf0QNQa2BFEC72Y-73" value="start" style="text;strokeColor=none;fillColor=none;align=left;verticalAlign=middle;spacingLeft=4;spacingRight=4;overflow=hidden;points=[[0,0.5],[1,0.5]];portConstraint=eastwest;rotatable=0;whiteSpace=wrap;html=1;fontSize=16;" parent="cfhBdmf0QNQa2BFEC72Y-70" vertex="1">
          <mxGeometry y="62" width="140" height="30" as="geometry" />
        </mxCell>
        <mxCell id="cfhBdmf0QNQa2BFEC72Y-74" value="end" style="text;strokeColor=none;fillColor=none;align=left;verticalAlign=middle;spacingLeft=4;spacingRight=4;overflow=hidden;points=[[0,0.5],[1,0.5]];portConstraint=eastwest;rotatable=0;whiteSpace=wrap;html=1;fontSize=16;" parent="cfhBdmf0QNQa2BFEC72Y-70" vertex="1">
          <mxGeometry y="92" width="140" height="30" as="geometry" />
        </mxCell>
        <mxCell id="cfhBdmf0QNQa2BFEC72Y-76" value="name" style="text;strokeColor=none;fillColor=none;align=left;verticalAlign=middle;spacingLeft=4;spacingRight=4;overflow=hidden;points=[[0,0.5],[1,0.5]];portConstraint=eastwest;rotatable=0;whiteSpace=wrap;html=1;fontSize=16;" parent="cfhBdmf0QNQa2BFEC72Y-70" vertex="1">
          <mxGeometry y="122" width="140" height="30" as="geometry" />
        </mxCell>
        <mxCell id="cfhBdmf0QNQa2BFEC72Y-75" value="is_day_off" style="text;strokeColor=none;fillColor=none;align=left;verticalAlign=middle;spacingLeft=4;spacingRight=4;overflow=hidden;points=[[0,0.5],[1,0.5]];portConstraint=eastwest;rotatable=0;whiteSpace=wrap;html=1;fontSize=16;" parent="cfhBdmf0QNQa2BFEC72Y-70" vertex="1">
          <mxGeometry y="152" width="140" height="30" as="geometry" />
        </mxCell>
        <mxCell id="cfhBdmf0QNQa2BFEC72Y-77" value="User" style="swimlane;fontStyle=0;childLayout=stackLayout;horizontal=1;startSize=24;horizontalStack=0;resizeParent=1;resizeParentMax=0;resizeLast=0;collapsible=1;marginBottom=0;whiteSpace=wrap;html=1;aspect=fixed;swimlaneBody=1;swimlaneHead=1;rounded=1;fontSize=16;align=left;" parent="WIyWlLk6GJQsqaUBKTNV-1" vertex="1">
          <mxGeometry x="497" y="374" width="196" height="362" as="geometry" />
        </mxCell>
        <mxCell id="cfhBdmf0QNQa2BFEC72Y-78" value="user_id" style="text;strokeColor=none;fillColor=none;align=left;verticalAlign=middle;spacingLeft=4;spacingRight=4;overflow=hidden;points=[[0,0.5],[1,0.5]];portConstraint=eastwest;rotatable=1;whiteSpace=wrap;html=1;movable=1;resizable=1;deletable=1;editable=1;locked=0;connectable=1;fontSize=16;" parent="cfhBdmf0QNQa2BFEC72Y-77" vertex="1">
          <mxGeometry y="24" width="196" height="30" as="geometry" />
        </mxCell>
        <mxCell id="cfhBdmf0QNQa2BFEC72Y-80" value="position_id" style="text;strokeColor=none;fillColor=none;align=left;verticalAlign=middle;spacingLeft=4;spacingRight=4;overflow=hidden;points=[[0,0.5],[1,0.5]];portConstraint=eastwest;rotatable=0;whiteSpace=wrap;html=1;fontSize=16;" parent="cfhBdmf0QNQa2BFEC72Y-77" vertex="1">
          <mxGeometry y="54" width="196" height="30" as="geometry" />
        </mxCell>
        <mxCell id="cfhBdmf0QNQa2BFEC72Y-94" value="department_id" style="text;strokeColor=none;fillColor=none;align=left;verticalAlign=middle;spacingLeft=4;spacingRight=4;overflow=hidden;points=[[0,0.5],[1,0.5]];portConstraint=eastwest;rotatable=0;whiteSpace=wrap;html=1;fontSize=16;" parent="cfhBdmf0QNQa2BFEC72Y-77" vertex="1">
          <mxGeometry y="84" width="196" height="30" as="geometry" />
        </mxCell>
        <mxCell id="cfhBdmf0QNQa2BFEC72Y-93" value="work_schedule_id" style="text;strokeColor=none;fillColor=none;align=left;verticalAlign=middle;spacingLeft=4;spacingRight=4;overflow=hidden;points=[[0,0.5],[1,0.5]];portConstraint=eastwest;rotatable=0;whiteSpace=wrap;html=1;fontSize=16;" parent="cfhBdmf0QNQa2BFEC72Y-77" vertex="1">
          <mxGeometry y="114" width="196" height="30" as="geometry" />
        </mxCell>
        <mxCell id="cfhBdmf0QNQa2BFEC72Y-79" value="" style="line;strokeWidth=1;fillColor=none;align=left;verticalAlign=middle;spacingTop=-1;spacingLeft=3;spacingRight=3;rotatable=0;labelPosition=right;points=[];portConstraint=eastwest;strokeColor=inherit;fontFamily=Helvetica;fontSize=16;fontColor=default;startSize=20;html=1;" parent="cfhBdmf0QNQa2BFEC72Y-77" vertex="1">
          <mxGeometry y="144" width="196" height="8" as="geometry" />
        </mxCell>
        <mxCell id="cfhBdmf0QNQa2BFEC72Y-92" value="name" style="text;strokeColor=none;fillColor=none;align=left;verticalAlign=middle;spacingLeft=4;spacingRight=4;overflow=hidden;points=[[0,0.5],[1,0.5]];portConstraint=eastwest;rotatable=0;whiteSpace=wrap;html=1;fontSize=16;" parent="cfhBdmf0QNQa2BFEC72Y-77" vertex="1">
          <mxGeometry y="152" width="196" height="30" as="geometry" />
        </mxCell>
        <mxCell id="cfhBdmf0QNQa2BFEC72Y-91" value="surname" style="text;strokeColor=none;fillColor=none;align=left;verticalAlign=middle;spacingLeft=4;spacingRight=4;overflow=hidden;points=[[0,0.5],[1,0.5]];portConstraint=eastwest;rotatable=0;whiteSpace=wrap;html=1;fontSize=16;" parent="cfhBdmf0QNQa2BFEC72Y-77" vertex="1">
          <mxGeometry y="182" width="196" height="30" as="geometry" />
        </mxCell>
        <mxCell id="cfhBdmf0QNQa2BFEC72Y-90" value="patronymic" style="text;strokeColor=none;fillColor=none;align=left;verticalAlign=middle;spacingLeft=4;spacingRight=4;overflow=hidden;points=[[0,0.5],[1,0.5]];portConstraint=eastwest;rotatable=0;whiteSpace=wrap;html=1;fontSize=16;" parent="cfhBdmf0QNQa2BFEC72Y-77" vertex="1">
          <mxGeometry y="212" width="196" height="30" as="geometry" />
        </mxCell>
        <mxCell id="cfhBdmf0QNQa2BFEC72Y-89" value="phone_num" style="text;strokeColor=none;fillColor=none;align=left;verticalAlign=middle;spacingLeft=4;spacingRight=4;overflow=hidden;points=[[0,0.5],[1,0.5]];portConstraint=eastwest;rotatable=0;whiteSpace=wrap;html=1;fontSize=16;" parent="cfhBdmf0QNQa2BFEC72Y-77" vertex="1">
          <mxGeometry y="242" width="196" height="30" as="geometry" />
        </mxCell>
        <mxCell id="cfhBdmf0QNQa2BFEC72Y-88" value="role" style="text;strokeColor=none;fillColor=none;align=left;verticalAlign=middle;spacingLeft=4;spacingRight=4;overflow=hidden;points=[[0,0.5],[1,0.5]];portConstraint=eastwest;rotatable=0;whiteSpace=wrap;html=1;fontSize=16;" parent="cfhBdmf0QNQa2BFEC72Y-77" vertex="1">
          <mxGeometry y="272" width="196" height="30" as="geometry" />
        </mxCell>
        <mxCell id="cfhBdmf0QNQa2BFEC72Y-87" value="login" style="text;strokeColor=none;fillColor=none;align=left;verticalAlign=middle;spacingLeft=4;spacingRight=4;overflow=hidden;points=[[0,0.5],[1,0.5]];portConstraint=eastwest;rotatable=0;whiteSpace=wrap;html=1;fontSize=16;" parent="cfhBdmf0QNQa2BFEC72Y-77" vertex="1">
          <mxGeometry y="302" width="196" height="30" as="geometry" />
        </mxCell>
        <mxCell id="cfhBdmf0QNQa2BFEC72Y-86" value="password" style="text;strokeColor=none;fillColor=none;align=left;verticalAlign=middle;spacingLeft=4;spacingRight=4;overflow=hidden;points=[[0,0.5],[1,0.5]];portConstraint=eastwest;rotatable=0;whiteSpace=wrap;html=1;fontSize=16;" parent="cfhBdmf0QNQa2BFEC72Y-77" vertex="1">
          <mxGeometry y="332" width="196" height="30" as="geometry" />
        </mxCell>
        <mxCell id="cfhBdmf0QNQa2BFEC72Y-82" value="" style="swimlane;fontStyle=0;childLayout=stackLayout;horizontal=1;startSize=24;horizontalStack=0;resizeParent=1;resizeParentMax=0;resizeLast=0;collapsible=1;marginBottom=0;whiteSpace=wrap;html=1;aspect=fixed;swimlaneBody=1;swimlaneHead=1;rounded=0;fontSize=16;" parent="WIyWlLk6GJQsqaUBKTNV-1" vertex="1">
          <mxGeometry x="-692" y="874" width="140" height="92" as="geometry" />
        </mxCell>
        <mxCell id="cfhBdmf0QNQa2BFEC72Y-83" value="Item 1" style="text;strokeColor=none;fillColor=none;align=left;verticalAlign=middle;spacingLeft=4;spacingRight=4;overflow=hidden;points=[[0,0.5],[1,0.5]];portConstraint=eastwest;rotatable=1;whiteSpace=wrap;html=1;movable=1;resizable=1;deletable=1;editable=1;locked=0;connectable=1;fontSize=16;" parent="cfhBdmf0QNQa2BFEC72Y-82" vertex="1">
          <mxGeometry y="24" width="140" height="30" as="geometry" />
        </mxCell>
        <mxCell id="cfhBdmf0QNQa2BFEC72Y-84" value="" style="line;strokeWidth=1;fillColor=none;align=left;verticalAlign=middle;spacingTop=-1;spacingLeft=3;spacingRight=3;rotatable=0;labelPosition=right;points=[];portConstraint=eastwest;strokeColor=inherit;fontFamily=Helvetica;fontSize=16;fontColor=default;startSize=20;html=1;" parent="cfhBdmf0QNQa2BFEC72Y-82" vertex="1">
          <mxGeometry y="54" width="140" height="8" as="geometry" />
        </mxCell>
        <mxCell id="cfhBdmf0QNQa2BFEC72Y-85" value="Item 2" style="text;strokeColor=none;fillColor=none;align=left;verticalAlign=middle;spacingLeft=4;spacingRight=4;overflow=hidden;points=[[0,0.5],[1,0.5]];portConstraint=eastwest;rotatable=0;whiteSpace=wrap;html=1;fontSize=16;" parent="cfhBdmf0QNQa2BFEC72Y-82" vertex="1">
          <mxGeometry y="62" width="140" height="30" as="geometry" />
        </mxCell>
        <mxCell id="cfhBdmf0QNQa2BFEC72Y-101" value="TaskType" style="swimlane;fontStyle=0;childLayout=stackLayout;horizontal=1;startSize=24;horizontalStack=0;resizeParent=1;resizeParentMax=0;resizeLast=0;collapsible=1;marginBottom=0;whiteSpace=wrap;html=1;aspect=fixed;swimlaneBody=1;swimlaneHead=1;rounded=0;fontSize=16;align=left;" parent="WIyWlLk6GJQsqaUBKTNV-1" vertex="1">
          <mxGeometry x="1174" y="811" width="136.96" height="92" as="geometry" />
        </mxCell>
        <mxCell id="cfhBdmf0QNQa2BFEC72Y-102" value="task_type_id" style="text;strokeColor=none;fillColor=none;align=left;verticalAlign=middle;spacingLeft=4;spacingRight=4;overflow=hidden;points=[[0,0.5],[1,0.5]];portConstraint=eastwest;rotatable=1;whiteSpace=wrap;html=1;movable=1;resizable=1;deletable=1;editable=1;locked=0;connectable=1;fontSize=16;" parent="cfhBdmf0QNQa2BFEC72Y-101" vertex="1">
          <mxGeometry y="24" width="136.96" height="30" as="geometry" />
        </mxCell>
        <mxCell id="cfhBdmf0QNQa2BFEC72Y-103" value="" style="line;strokeWidth=1;fillColor=none;align=left;verticalAlign=middle;spacingTop=-1;spacingLeft=3;spacingRight=3;rotatable=0;labelPosition=right;points=[];portConstraint=eastwest;strokeColor=inherit;fontFamily=Helvetica;fontSize=16;fontColor=default;startSize=20;html=1;" parent="cfhBdmf0QNQa2BFEC72Y-101" vertex="1">
          <mxGeometry y="54" width="136.96" height="8" as="geometry" />
        </mxCell>
        <mxCell id="cfhBdmf0QNQa2BFEC72Y-104" value="name" style="text;strokeColor=none;fillColor=none;align=left;verticalAlign=middle;spacingLeft=4;spacingRight=4;overflow=hidden;points=[[0,0.5],[1,0.5]];portConstraint=eastwest;rotatable=0;whiteSpace=wrap;html=1;fontSize=16;" parent="cfhBdmf0QNQa2BFEC72Y-101" vertex="1">
          <mxGeometry y="62" width="136.96" height="30" as="geometry" />
        </mxCell>
        <mxCell id="cfhBdmf0QNQa2BFEC72Y-105" value="Vacation" style="swimlane;fontStyle=0;childLayout=stackLayout;horizontal=1;startSize=24;horizontalStack=0;resizeParent=1;resizeParentMax=0;resizeLast=0;collapsible=1;marginBottom=0;whiteSpace=wrap;html=1;aspect=fixed;swimlaneBody=1;swimlaneHead=1;rounded=1;fontSize=16;align=left;" parent="WIyWlLk6GJQsqaUBKTNV-1" vertex="1">
          <mxGeometry x="7" y="137" width="140" height="212" as="geometry" />
        </mxCell>
        <mxCell id="cfhBdmf0QNQa2BFEC72Y-106" value="vacation_id" style="text;strokeColor=none;fillColor=none;align=left;verticalAlign=middle;spacingLeft=4;spacingRight=4;overflow=hidden;points=[[0,0.5],[1,0.5]];portConstraint=eastwest;rotatable=1;whiteSpace=wrap;html=1;movable=1;resizable=1;deletable=1;editable=1;locked=0;connectable=1;fontSize=16;" parent="cfhBdmf0QNQa2BFEC72Y-105" vertex="1">
          <mxGeometry y="24" width="140" height="30" as="geometry" />
        </mxCell>
        <mxCell id="cfhBdmf0QNQa2BFEC72Y-108" value="employee_id" style="text;strokeColor=none;fillColor=none;align=left;verticalAlign=middle;spacingLeft=4;spacingRight=4;overflow=hidden;points=[[0,0.5],[1,0.5]];portConstraint=eastwest;rotatable=0;whiteSpace=wrap;html=1;fontSize=16;" parent="cfhBdmf0QNQa2BFEC72Y-105" vertex="1">
          <mxGeometry y="54" width="140" height="30" as="geometry" />
        </mxCell>
        <mxCell id="cfhBdmf0QNQa2BFEC72Y-107" value="" style="line;strokeWidth=1;fillColor=none;align=left;verticalAlign=middle;spacingTop=-1;spacingLeft=3;spacingRight=3;rotatable=0;labelPosition=right;points=[];portConstraint=eastwest;strokeColor=inherit;fontFamily=Helvetica;fontSize=16;fontColor=default;startSize=20;html=1;" parent="cfhBdmf0QNQa2BFEC72Y-105" vertex="1">
          <mxGeometry y="84" width="140" height="8" as="geometry" />
        </mxCell>
        <mxCell id="cfhBdmf0QNQa2BFEC72Y-112" value="start" style="text;strokeColor=none;fillColor=none;align=left;verticalAlign=middle;spacingLeft=4;spacingRight=4;overflow=hidden;points=[[0,0.5],[1,0.5]];portConstraint=eastwest;rotatable=0;whiteSpace=wrap;html=1;fontSize=16;" parent="cfhBdmf0QNQa2BFEC72Y-105" vertex="1">
          <mxGeometry y="92" width="140" height="30" as="geometry" />
        </mxCell>
        <mxCell id="cfhBdmf0QNQa2BFEC72Y-111" value="end" style="text;strokeColor=none;fillColor=none;align=left;verticalAlign=middle;spacingLeft=4;spacingRight=4;overflow=hidden;points=[[0,0.5],[1,0.5]];portConstraint=eastwest;rotatable=0;whiteSpace=wrap;html=1;fontSize=16;" parent="cfhBdmf0QNQa2BFEC72Y-105" vertex="1">
          <mxGeometry y="122" width="140" height="30" as="geometry" />
        </mxCell>
        <mxCell id="cfhBdmf0QNQa2BFEC72Y-110" value="status" style="text;strokeColor=none;fillColor=none;align=left;verticalAlign=middle;spacingLeft=4;spacingRight=4;overflow=hidden;points=[[0,0.5],[1,0.5]];portConstraint=eastwest;rotatable=0;whiteSpace=wrap;html=1;fontSize=16;" parent="cfhBdmf0QNQa2BFEC72Y-105" vertex="1">
          <mxGeometry y="152" width="140" height="30" as="geometry" />
        </mxCell>
        <mxCell id="cfhBdmf0QNQa2BFEC72Y-109" value="type" style="text;strokeColor=none;fillColor=none;align=left;verticalAlign=middle;spacingLeft=4;spacingRight=4;overflow=hidden;points=[[0,0.5],[1,0.5]];portConstraint=eastwest;rotatable=0;whiteSpace=wrap;html=1;fontSize=16;" parent="cfhBdmf0QNQa2BFEC72Y-105" vertex="1">
          <mxGeometry y="182" width="140" height="30" as="geometry" />
        </mxCell>
        <mxCell id="cfhBdmf0QNQa2BFEC72Y-113" value="BusinessTrip" style="swimlane;fontStyle=0;childLayout=stackLayout;horizontal=1;startSize=24;horizontalStack=0;resizeParent=1;resizeParentMax=0;resizeLast=0;collapsible=1;marginBottom=0;whiteSpace=wrap;html=1;aspect=fixed;swimlaneBody=1;swimlaneHead=1;rounded=0;fontSize=16;align=left;" parent="WIyWlLk6GJQsqaUBKTNV-1" vertex="1">
          <mxGeometry x="19" y="400" width="140" height="182" as="geometry" />
        </mxCell>
        <mxCell id="cfhBdmf0QNQa2BFEC72Y-114" value="business_trip_id" style="text;strokeColor=none;fillColor=none;align=left;verticalAlign=middle;spacingLeft=4;spacingRight=4;overflow=hidden;points=[[0,0.5],[1,0.5]];portConstraint=eastwest;rotatable=1;whiteSpace=wrap;html=1;movable=1;resizable=1;deletable=1;editable=1;locked=0;connectable=1;fontSize=16;" parent="cfhBdmf0QNQa2BFEC72Y-113" vertex="1">
          <mxGeometry y="24" width="140" height="30" as="geometry" />
        </mxCell>
        <mxCell id="cfhBdmf0QNQa2BFEC72Y-115" value="" style="line;strokeWidth=1;fillColor=none;align=left;verticalAlign=middle;spacingTop=-1;spacingLeft=3;spacingRight=3;rotatable=0;labelPosition=right;points=[];portConstraint=eastwest;strokeColor=inherit;fontFamily=Helvetica;fontSize=16;fontColor=default;startSize=20;html=1;" parent="cfhBdmf0QNQa2BFEC72Y-113" vertex="1">
          <mxGeometry y="54" width="140" height="8" as="geometry" />
        </mxCell>
        <mxCell id="cfhBdmf0QNQa2BFEC72Y-116" value="start" style="text;strokeColor=none;fillColor=none;align=left;verticalAlign=middle;spacingLeft=4;spacingRight=4;overflow=hidden;points=[[0,0.5],[1,0.5]];portConstraint=eastwest;rotatable=0;whiteSpace=wrap;html=1;fontSize=16;" parent="cfhBdmf0QNQa2BFEC72Y-113" vertex="1">
          <mxGeometry y="62" width="140" height="30" as="geometry" />
        </mxCell>
        <mxCell id="cfhBdmf0QNQa2BFEC72Y-123" value="end" style="text;strokeColor=none;fillColor=none;align=left;verticalAlign=middle;spacingLeft=4;spacingRight=4;overflow=hidden;points=[[0,0.5],[1,0.5]];portConstraint=eastwest;rotatable=0;whiteSpace=wrap;html=1;fontSize=16;" parent="cfhBdmf0QNQa2BFEC72Y-113" vertex="1">
          <mxGeometry y="92" width="140" height="30" as="geometry" />
        </mxCell>
        <mxCell id="cfhBdmf0QNQa2BFEC72Y-122" value="order" style="text;strokeColor=none;fillColor=none;align=left;verticalAlign=middle;spacingLeft=4;spacingRight=4;overflow=hidden;points=[[0,0.5],[1,0.5]];portConstraint=eastwest;rotatable=0;whiteSpace=wrap;html=1;fontSize=16;" parent="cfhBdmf0QNQa2BFEC72Y-113" vertex="1">
          <mxGeometry y="122" width="140" height="30" as="geometry" />
        </mxCell>
        <mxCell id="cfhBdmf0QNQa2BFEC72Y-121" value="place" style="text;strokeColor=none;fillColor=none;align=left;verticalAlign=middle;spacingLeft=4;spacingRight=4;overflow=hidden;points=[[0,0.5],[1,0.5]];portConstraint=eastwest;rotatable=0;whiteSpace=wrap;html=1;fontSize=16;" parent="cfhBdmf0QNQa2BFEC72Y-113" vertex="1">
          <mxGeometry y="152" width="140" height="30" as="geometry" />
        </mxCell>
        <mxCell id="cfhBdmf0QNQa2BFEC72Y-117" value="Department" style="swimlane;fontStyle=0;childLayout=stackLayout;horizontal=1;startSize=24;horizontalStack=0;resizeParent=1;resizeParentMax=0;resizeLast=0;collapsible=1;marginBottom=0;whiteSpace=wrap;html=1;aspect=fixed;swimlaneBody=1;swimlaneHead=1;rounded=0;fontSize=16;align=left;" parent="WIyWlLk6GJQsqaUBKTNV-1" vertex="1">
          <mxGeometry x="497" y="869" width="140" height="92" as="geometry" />
        </mxCell>
        <mxCell id="cfhBdmf0QNQa2BFEC72Y-118" value="department_id" style="text;strokeColor=none;fillColor=none;align=left;verticalAlign=middle;spacingLeft=4;spacingRight=4;overflow=hidden;points=[[0,0.5],[1,0.5]];portConstraint=eastwest;rotatable=1;whiteSpace=wrap;html=1;movable=1;resizable=1;deletable=1;editable=1;locked=0;connectable=1;fontSize=16;" parent="cfhBdmf0QNQa2BFEC72Y-117" vertex="1">
          <mxGeometry y="24" width="140" height="30" as="geometry" />
        </mxCell>
        <mxCell id="cfhBdmf0QNQa2BFEC72Y-119" value="" style="line;strokeWidth=1;fillColor=none;align=left;verticalAlign=middle;spacingTop=-1;spacingLeft=3;spacingRight=3;rotatable=0;labelPosition=right;points=[];portConstraint=eastwest;strokeColor=inherit;fontFamily=Helvetica;fontSize=16;fontColor=default;startSize=20;html=1;" parent="cfhBdmf0QNQa2BFEC72Y-117" vertex="1">
          <mxGeometry y="54" width="140" height="8" as="geometry" />
        </mxCell>
        <mxCell id="cfhBdmf0QNQa2BFEC72Y-120" value="name" style="text;strokeColor=none;fillColor=none;align=left;verticalAlign=middle;spacingLeft=4;spacingRight=4;overflow=hidden;points=[[0,0.5],[1,0.5]];portConstraint=eastwest;rotatable=0;whiteSpace=wrap;html=1;fontSize=16;" parent="cfhBdmf0QNQa2BFEC72Y-117" vertex="1">
          <mxGeometry y="62" width="140" height="30" as="geometry" />
        </mxCell>
        <mxCell id="cfhBdmf0QNQa2BFEC72Y-124" value="Report" style="swimlane;fontStyle=0;childLayout=stackLayout;horizontal=1;startSize=24;horizontalStack=0;resizeParent=1;resizeParentMax=0;resizeLast=0;collapsible=1;marginBottom=0;whiteSpace=wrap;html=1;aspect=fixed;swimlaneBody=1;swimlaneHead=1;rounded=1;fontSize=16;align=left;" parent="WIyWlLk6GJQsqaUBKTNV-1" vertex="1">
          <mxGeometry x="605" y="32" width="140" height="212" as="geometry" />
        </mxCell>
        <mxCell id="cfhBdmf0QNQa2BFEC72Y-125" value="report_id" style="text;strokeColor=none;fillColor=none;align=left;verticalAlign=middle;spacingLeft=4;spacingRight=4;overflow=hidden;points=[[0,0.5],[1,0.5]];portConstraint=eastwest;rotatable=1;whiteSpace=wrap;html=1;movable=1;resizable=1;deletable=1;editable=1;locked=0;connectable=1;fontSize=16;" parent="cfhBdmf0QNQa2BFEC72Y-124" vertex="1">
          <mxGeometry y="24" width="140" height="30" as="geometry" />
        </mxCell>
        <mxCell id="cfhBdmf0QNQa2BFEC72Y-127" value="user_id" style="text;strokeColor=none;fillColor=none;align=left;verticalAlign=middle;spacingLeft=4;spacingRight=4;overflow=hidden;points=[[0,0.5],[1,0.5]];portConstraint=eastwest;rotatable=0;whiteSpace=wrap;html=1;fontSize=16;" parent="cfhBdmf0QNQa2BFEC72Y-124" vertex="1">
          <mxGeometry y="54" width="140" height="30" as="geometry" />
        </mxCell>
        <mxCell id="cfhBdmf0QNQa2BFEC72Y-126" value="" style="line;strokeWidth=1;fillColor=none;align=left;verticalAlign=middle;spacingTop=-1;spacingLeft=3;spacingRight=3;rotatable=0;labelPosition=right;points=[];portConstraint=eastwest;strokeColor=inherit;fontFamily=Helvetica;fontSize=16;fontColor=default;startSize=20;html=1;" parent="cfhBdmf0QNQa2BFEC72Y-124" vertex="1">
          <mxGeometry y="84" width="140" height="8" as="geometry" />
        </mxCell>
        <mxCell id="cfhBdmf0QNQa2BFEC72Y-131" value="date" style="text;strokeColor=none;fillColor=none;align=left;verticalAlign=middle;spacingLeft=4;spacingRight=4;overflow=hidden;points=[[0,0.5],[1,0.5]];portConstraint=eastwest;rotatable=0;whiteSpace=wrap;html=1;fontSize=16;" parent="cfhBdmf0QNQa2BFEC72Y-124" vertex="1">
          <mxGeometry y="92" width="140" height="30" as="geometry" />
        </mxCell>
        <mxCell id="cfhBdmf0QNQa2BFEC72Y-130" value="creation_time" style="text;strokeColor=none;fillColor=none;align=left;verticalAlign=middle;spacingLeft=4;spacingRight=4;overflow=hidden;points=[[0,0.5],[1,0.5]];portConstraint=eastwest;rotatable=0;whiteSpace=wrap;html=1;fontSize=16;" parent="cfhBdmf0QNQa2BFEC72Y-124" vertex="1">
          <mxGeometry y="122" width="140" height="30" as="geometry" />
        </mxCell>
        <mxCell id="cfhBdmf0QNQa2BFEC72Y-129" value="start_working_day" style="text;strokeColor=none;fillColor=none;align=left;verticalAlign=middle;spacingLeft=4;spacingRight=4;overflow=hidden;points=[[0,0.5],[1,0.5]];portConstraint=eastwest;rotatable=0;whiteSpace=wrap;html=1;fontSize=16;" parent="cfhBdmf0QNQa2BFEC72Y-124" vertex="1">
          <mxGeometry y="152" width="140" height="30" as="geometry" />
        </mxCell>
        <mxCell id="cfhBdmf0QNQa2BFEC72Y-128" value="end_working_day" style="text;strokeColor=none;fillColor=none;align=left;verticalAlign=middle;spacingLeft=4;spacingRight=4;overflow=hidden;points=[[0,0.5],[1,0.5]];portConstraint=eastwest;rotatable=0;whiteSpace=wrap;html=1;fontSize=16;" parent="cfhBdmf0QNQa2BFEC72Y-124" vertex="1">
          <mxGeometry y="182" width="140" height="30" as="geometry" />
        </mxCell>
        <mxCell id="cfhBdmf0QNQa2BFEC72Y-132" value="WorkSchedule" style="swimlane;fontStyle=0;childLayout=stackLayout;horizontal=1;startSize=24;horizontalStack=0;resizeParent=1;resizeParentMax=0;resizeLast=0;collapsible=1;marginBottom=0;whiteSpace=wrap;html=1;aspect=fixed;swimlaneBody=1;swimlaneHead=1;rounded=0;fontSize=16;align=left;" parent="WIyWlLk6GJQsqaUBKTNV-1" vertex="1">
          <mxGeometry x="718" y="865" width="211" height="212" as="geometry" />
        </mxCell>
        <mxCell id="cfhBdmf0QNQa2BFEC72Y-133" value="work_shedule_id" style="text;strokeColor=none;fillColor=none;align=left;verticalAlign=middle;spacingLeft=4;spacingRight=4;overflow=hidden;points=[[0,0.5],[1,0.5]];portConstraint=eastwest;rotatable=1;whiteSpace=wrap;html=1;movable=1;resizable=1;deletable=1;editable=1;locked=0;connectable=1;fontSize=16;" parent="cfhBdmf0QNQa2BFEC72Y-132" vertex="1">
          <mxGeometry y="24" width="211" height="30" as="geometry" />
        </mxCell>
        <mxCell id="cfhBdmf0QNQa2BFEC72Y-134" value="" style="line;strokeWidth=1;fillColor=none;align=left;verticalAlign=middle;spacingTop=-1;spacingLeft=3;spacingRight=3;rotatable=0;labelPosition=right;points=[];portConstraint=eastwest;strokeColor=inherit;fontFamily=Helvetica;fontSize=16;fontColor=default;startSize=20;html=1;" parent="cfhBdmf0QNQa2BFEC72Y-132" vertex="1">
          <mxGeometry y="54" width="211" height="8" as="geometry" />
        </mxCell>
        <mxCell id="cfhBdmf0QNQa2BFEC72Y-135" value="start" style="text;strokeColor=none;fillColor=none;align=left;verticalAlign=middle;spacingLeft=4;spacingRight=4;overflow=hidden;points=[[0,0.5],[1,0.5]];portConstraint=eastwest;rotatable=0;whiteSpace=wrap;html=1;fontSize=16;" parent="cfhBdmf0QNQa2BFEC72Y-132" vertex="1">
          <mxGeometry y="62" width="211" height="30" as="geometry" />
        </mxCell>
        <mxCell id="cfhBdmf0QNQa2BFEC72Y-139" value="num_of_working_seconds" style="text;strokeColor=none;fillColor=none;align=left;verticalAlign=middle;spacingLeft=4;spacingRight=4;overflow=hidden;points=[[0,0.5],[1,0.5]];portConstraint=eastwest;rotatable=0;whiteSpace=wrap;html=1;fontSize=16;" parent="cfhBdmf0QNQa2BFEC72Y-132" vertex="1">
          <mxGeometry y="92" width="211" height="30" as="geometry" />
        </mxCell>
        <mxCell id="cfhBdmf0QNQa2BFEC72Y-138" value="time_for_lunch" style="text;strokeColor=none;fillColor=none;align=left;verticalAlign=middle;spacingLeft=4;spacingRight=4;overflow=hidden;points=[[0,0.5],[1,0.5]];portConstraint=eastwest;rotatable=0;whiteSpace=wrap;html=1;fontSize=16;" parent="cfhBdmf0QNQa2BFEC72Y-132" vertex="1">
          <mxGeometry y="122" width="211" height="30" as="geometry" />
        </mxCell>
        <mxCell id="cfhBdmf0QNQa2BFEC72Y-137" value="lunch_duration_seconds" style="text;strokeColor=none;fillColor=none;align=left;verticalAlign=middle;spacingLeft=4;spacingRight=4;overflow=hidden;points=[[0,0.5],[1,0.5]];portConstraint=eastwest;rotatable=0;whiteSpace=wrap;html=1;fontSize=16;" parent="cfhBdmf0QNQa2BFEC72Y-132" vertex="1">
          <mxGeometry y="152" width="211" height="30" as="geometry" />
        </mxCell>
        <mxCell id="cfhBdmf0QNQa2BFEC72Y-136" value="is_flexible_schedule" style="text;strokeColor=none;fillColor=none;align=left;verticalAlign=middle;spacingLeft=4;spacingRight=4;overflow=hidden;points=[[0,0.5],[1,0.5]];portConstraint=eastwest;rotatable=0;whiteSpace=wrap;html=1;fontSize=16;" parent="cfhBdmf0QNQa2BFEC72Y-132" vertex="1">
          <mxGeometry y="182" width="211" height="30" as="geometry" />
        </mxCell>
        <mxCell id="cfhBdmf0QNQa2BFEC72Y-140" value="Notification" style="swimlane;fontStyle=0;childLayout=stackLayout;horizontal=1;startSize=24;horizontalStack=0;resizeParent=1;resizeParentMax=0;resizeLast=0;collapsible=1;marginBottom=0;whiteSpace=wrap;html=1;aspect=fixed;swimlaneBody=1;swimlaneHead=1;rounded=0;fontSize=16;align=left;" parent="WIyWlLk6GJQsqaUBKTNV-1" vertex="1">
          <mxGeometry x="20" y="803" width="140" height="92" as="geometry" />
        </mxCell>
        <mxCell id="cfhBdmf0QNQa2BFEC72Y-141" value="notification_id" style="text;strokeColor=none;fillColor=none;align=left;verticalAlign=middle;spacingLeft=4;spacingRight=4;overflow=hidden;points=[[0,0.5],[1,0.5]];portConstraint=eastwest;rotatable=1;whiteSpace=wrap;html=1;movable=1;resizable=1;deletable=1;editable=1;locked=0;connectable=1;fontSize=16;" parent="cfhBdmf0QNQa2BFEC72Y-140" vertex="1">
          <mxGeometry y="24" width="140" height="30" as="geometry" />
        </mxCell>
        <mxCell id="cfhBdmf0QNQa2BFEC72Y-142" value="" style="line;strokeWidth=1;fillColor=none;align=left;verticalAlign=middle;spacingTop=-1;spacingLeft=3;spacingRight=3;rotatable=0;labelPosition=right;points=[];portConstraint=eastwest;strokeColor=inherit;fontFamily=Helvetica;fontSize=16;fontColor=default;startSize=20;html=1;" parent="cfhBdmf0QNQa2BFEC72Y-140" vertex="1">
          <mxGeometry y="54" width="140" height="8" as="geometry" />
        </mxCell>
        <mxCell id="cfhBdmf0QNQa2BFEC72Y-143" value="text" style="text;strokeColor=none;fillColor=none;align=left;verticalAlign=middle;spacingLeft=4;spacingRight=4;overflow=hidden;points=[[0,0.5],[1,0.5]];portConstraint=eastwest;rotatable=0;whiteSpace=wrap;html=1;fontSize=16;" parent="cfhBdmf0QNQa2BFEC72Y-140" vertex="1">
          <mxGeometry y="62" width="140" height="30" as="geometry" />
        </mxCell>
        <mxCell id="cfhBdmf0QNQa2BFEC72Y-144" value="Position" style="swimlane;fontStyle=0;childLayout=stackLayout;horizontal=1;startSize=24;horizontalStack=0;resizeParent=1;resizeParentMax=0;resizeLast=0;collapsible=1;marginBottom=0;whiteSpace=wrap;html=1;aspect=fixed;swimlaneBody=1;swimlaneHead=1;rounded=0;fontSize=16;align=left;" parent="WIyWlLk6GJQsqaUBKTNV-1" vertex="1">
          <mxGeometry x="251" y="869" width="140" height="92" as="geometry" />
        </mxCell>
        <mxCell id="cfhBdmf0QNQa2BFEC72Y-145" value="position_id" style="text;strokeColor=none;fillColor=none;align=left;verticalAlign=middle;spacingLeft=4;spacingRight=4;overflow=hidden;points=[[0,0.5],[1,0.5]];portConstraint=eastwest;rotatable=1;whiteSpace=wrap;html=1;movable=1;resizable=1;deletable=1;editable=1;locked=0;connectable=1;fontSize=16;" parent="cfhBdmf0QNQa2BFEC72Y-144" vertex="1">
          <mxGeometry y="24" width="140" height="30" as="geometry" />
        </mxCell>
        <mxCell id="cfhBdmf0QNQa2BFEC72Y-146" value="" style="line;strokeWidth=1;fillColor=none;align=left;verticalAlign=middle;spacingTop=-1;spacingLeft=3;spacingRight=3;rotatable=0;labelPosition=right;points=[];portConstraint=eastwest;strokeColor=inherit;fontFamily=Helvetica;fontSize=16;fontColor=default;startSize=20;html=1;" parent="cfhBdmf0QNQa2BFEC72Y-144" vertex="1">
          <mxGeometry y="54" width="140" height="8" as="geometry" />
        </mxCell>
        <mxCell id="cfhBdmf0QNQa2BFEC72Y-147" value="name" style="text;strokeColor=none;fillColor=none;align=left;verticalAlign=middle;spacingLeft=4;spacingRight=4;overflow=hidden;points=[[0,0.5],[1,0.5]];portConstraint=eastwest;rotatable=0;whiteSpace=wrap;html=1;fontSize=16;" parent="cfhBdmf0QNQa2BFEC72Y-144" vertex="1">
          <mxGeometry y="62" width="140" height="30" as="geometry" />
        </mxCell>
        <mxCell id="cfhBdmf0QNQa2BFEC72Y-148" value="ReportItem" style="swimlane;fontStyle=0;childLayout=stackLayout;horizontal=1;startSize=24;horizontalStack=0;resizeParent=1;resizeParentMax=0;resizeLast=0;collapsible=1;marginBottom=0;whiteSpace=wrap;html=1;aspect=fixed;swimlaneBody=1;swimlaneHead=1;rounded=1;fontSize=16;align=left;" parent="WIyWlLk6GJQsqaUBKTNV-1" vertex="1">
          <mxGeometry x="1157" y="25" width="175" height="242" as="geometry" />
        </mxCell>
        <mxCell id="cfhBdmf0QNQa2BFEC72Y-149" value="report_item_id" style="text;strokeColor=none;fillColor=none;align=left;verticalAlign=middle;spacingLeft=4;spacingRight=4;overflow=hidden;points=[[0,0.5],[1,0.5]];portConstraint=eastwest;rotatable=1;whiteSpace=wrap;html=1;movable=1;resizable=1;deletable=1;editable=1;locked=0;connectable=1;fontSize=16;" parent="cfhBdmf0QNQa2BFEC72Y-148" vertex="1">
          <mxGeometry y="24" width="175" height="30" as="geometry" />
        </mxCell>
        <mxCell id="cfhBdmf0QNQa2BFEC72Y-151" value="report_id" style="text;strokeColor=none;fillColor=none;align=left;verticalAlign=middle;spacingLeft=4;spacingRight=4;overflow=hidden;points=[[0,0.5],[1,0.5]];portConstraint=eastwest;rotatable=0;whiteSpace=wrap;html=1;fontSize=16;" parent="cfhBdmf0QNQa2BFEC72Y-148" vertex="1">
          <mxGeometry y="54" width="175" height="30" as="geometry" />
        </mxCell>
        <mxCell id="cfhBdmf0QNQa2BFEC72Y-159" value="report_item_type" style="text;strokeColor=none;fillColor=none;align=left;verticalAlign=middle;spacingLeft=4;spacingRight=4;overflow=hidden;points=[[0,0.5],[1,0.5]];portConstraint=eastwest;rotatable=0;whiteSpace=wrap;html=1;fontSize=16;" parent="cfhBdmf0QNQa2BFEC72Y-148" vertex="1">
          <mxGeometry y="84" width="175" height="30" as="geometry" />
        </mxCell>
        <mxCell id="cfhBdmf0QNQa2BFEC72Y-150" value="" style="line;strokeWidth=1;fillColor=none;align=left;verticalAlign=middle;spacingTop=-1;spacingLeft=3;spacingRight=3;rotatable=0;labelPosition=right;points=[];portConstraint=eastwest;strokeColor=inherit;fontFamily=Helvetica;fontSize=16;fontColor=default;startSize=20;html=1;" parent="cfhBdmf0QNQa2BFEC72Y-148" vertex="1">
          <mxGeometry y="114" width="175" height="8" as="geometry" />
        </mxCell>
        <mxCell id="cfhBdmf0QNQa2BFEC72Y-160" value="task_id(FK)" style="text;strokeColor=none;fillColor=none;align=left;verticalAlign=middle;spacingLeft=4;spacingRight=4;overflow=hidden;points=[[0,0.5],[1,0.5]];portConstraint=eastwest;rotatable=0;whiteSpace=wrap;html=1;fontSize=16;" parent="cfhBdmf0QNQa2BFEC72Y-148" vertex="1">
          <mxGeometry y="122" width="175" height="30" as="geometry" />
        </mxCell>
        <mxCell id="cfhBdmf0QNQa2BFEC72Y-158" value="start" style="text;strokeColor=none;fillColor=none;align=left;verticalAlign=middle;spacingLeft=4;spacingRight=4;overflow=hidden;points=[[0,0.5],[1,0.5]];portConstraint=eastwest;rotatable=0;whiteSpace=wrap;html=1;fontSize=16;" parent="cfhBdmf0QNQa2BFEC72Y-148" vertex="1">
          <mxGeometry y="152" width="175" height="30" as="geometry" />
        </mxCell>
        <mxCell id="cfhBdmf0QNQa2BFEC72Y-157" value="end" style="text;strokeColor=none;fillColor=none;align=left;verticalAlign=middle;spacingLeft=4;spacingRight=4;overflow=hidden;points=[[0,0.5],[1,0.5]];portConstraint=eastwest;rotatable=0;whiteSpace=wrap;html=1;fontSize=16;" parent="cfhBdmf0QNQa2BFEC72Y-148" vertex="1">
          <mxGeometry y="182" width="175" height="30" as="geometry" />
        </mxCell>
        <mxCell id="cfhBdmf0QNQa2BFEC72Y-156" value="text" style="text;strokeColor=none;fillColor=none;align=left;verticalAlign=middle;spacingLeft=4;spacingRight=4;overflow=hidden;points=[[0,0.5],[1,0.5]];portConstraint=eastwest;rotatable=0;whiteSpace=wrap;html=1;fontSize=16;" parent="cfhBdmf0QNQa2BFEC72Y-148" vertex="1">
          <mxGeometry y="212" width="175" height="30" as="geometry" />
        </mxCell>
        <mxCell id="cfhBdmf0QNQa2BFEC72Y-152" value="ReportItemType" style="swimlane;fontStyle=0;childLayout=stackLayout;horizontal=1;startSize=24;horizontalStack=0;resizeParent=1;resizeParentMax=0;resizeLast=0;collapsible=1;marginBottom=0;whiteSpace=wrap;html=1;aspect=fixed;swimlaneBody=1;swimlaneHead=1;rounded=0;fontSize=16;align=left;" parent="WIyWlLk6GJQsqaUBKTNV-1" vertex="1">
          <mxGeometry x="1467" y="32" width="187" height="122" as="geometry" />
        </mxCell>
        <mxCell id="cfhBdmf0QNQa2BFEC72Y-153" value="report_item_type_id" style="text;strokeColor=none;fillColor=none;align=left;verticalAlign=middle;spacingLeft=4;spacingRight=4;overflow=hidden;points=[[0,0.5],[1,0.5]];portConstraint=eastwest;rotatable=1;whiteSpace=wrap;html=1;movable=1;resizable=1;deletable=1;editable=1;locked=0;connectable=1;fontSize=16;" parent="cfhBdmf0QNQa2BFEC72Y-152" vertex="1">
          <mxGeometry y="24" width="187" height="30" as="geometry" />
        </mxCell>
        <mxCell id="cfhBdmf0QNQa2BFEC72Y-154" value="" style="line;strokeWidth=1;fillColor=none;align=left;verticalAlign=middle;spacingTop=-1;spacingLeft=3;spacingRight=3;rotatable=0;labelPosition=right;points=[];portConstraint=eastwest;strokeColor=inherit;fontFamily=Helvetica;fontSize=16;fontColor=default;startSize=20;html=1;" parent="cfhBdmf0QNQa2BFEC72Y-152" vertex="1">
          <mxGeometry y="54" width="187" height="8" as="geometry" />
        </mxCell>
        <mxCell id="cfhBdmf0QNQa2BFEC72Y-155" value="name" style="text;strokeColor=none;fillColor=none;align=left;verticalAlign=middle;spacingLeft=4;spacingRight=4;overflow=hidden;points=[[0,0.5],[1,0.5]];portConstraint=eastwest;rotatable=0;whiteSpace=wrap;html=1;fontSize=16;" parent="cfhBdmf0QNQa2BFEC72Y-152" vertex="1">
          <mxGeometry y="62" width="187" height="30" as="geometry" />
        </mxCell>
        <mxCell id="cfhBdmf0QNQa2BFEC72Y-161" value="is_working_time" style="text;strokeColor=none;fillColor=none;align=left;verticalAlign=middle;spacingLeft=4;spacingRight=4;overflow=hidden;points=[[0,0.5],[1,0.5]];portConstraint=eastwest;rotatable=0;whiteSpace=wrap;html=1;fontSize=16;" parent="cfhBdmf0QNQa2BFEC72Y-152" vertex="1">
          <mxGeometry y="92" width="187" height="30" as="geometry" />
        </mxCell>
        <mxCell id="cfhBdmf0QNQa2BFEC72Y-168" value="&lt;font style=&quot;font-size: 16px;&quot;&gt;works in&lt;/font&gt;" style="text;html=1;align=center;verticalAlign=middle;resizable=0;points=[];autosize=1;strokeColor=none;fillColor=none;fontSize=12;fontFamily=Helvetica;fontColor=default;" parent="WIyWlLk6GJQsqaUBKTNV-1" vertex="1">
          <mxGeometry x="536" y="807" width="77" height="31" as="geometry" />
        </mxCell>
        <mxCell id="cfhBdmf0QNQa2BFEC72Y-166" value="" style="endArrow=blockThin;html=1;fontFamily=Helvetica;fontSize=12;fontColor=default;strokeColor=default;startArrow=oval;startFill=1;endFill=1;strokeWidth=2;entryX=1.008;entryY=-0.06;entryDx=0;entryDy=0;edgeStyle=orthogonalEdgeStyle;sourcePerimeterSpacing=0;targetPerimeterSpacing=0;endSize=10;startSize=10;exitX=0.082;exitY=1.121;exitDx=0;exitDy=0;exitPerimeter=0;rounded=0;entryPerimeter=0;" parent="WIyWlLk6GJQsqaUBKTNV-1" source="cfhBdmf0QNQa2BFEC72Y-86" target="cfhBdmf0QNQa2BFEC72Y-145" edge="1">
          <mxGeometry width="50" height="50" relative="1" as="geometry">
            <mxPoint x="514" y="752" as="sourcePoint" />
            <mxPoint x="525" y="-144" as="targetPoint" />
            <Array as="points">
              <mxPoint x="513" y="786" />
              <mxPoint x="392" y="786" />
            </Array>
          </mxGeometry>
        </mxCell>
        <mxCell id="cfhBdmf0QNQa2BFEC72Y-171" value="&lt;span style=&quot;font-size: 16px;&quot;&gt;is&lt;/span&gt;" style="text;html=1;align=center;verticalAlign=middle;resizable=0;points=[];autosize=1;strokeColor=none;fillColor=none;fontSize=12;fontFamily=Helvetica;fontColor=default;" parent="WIyWlLk6GJQsqaUBKTNV-1" vertex="1">
          <mxGeometry x="427" y="750" width="30" height="31" as="geometry" />
        </mxCell>
        <mxCell id="cfhBdmf0QNQa2BFEC72Y-173" value="" style="endArrow=blockThin;html=1;fontFamily=Helvetica;fontSize=12;fontColor=default;strokeColor=default;startArrow=oval;startFill=1;endFill=1;strokeWidth=2;edgeStyle=orthogonalEdgeStyle;sourcePerimeterSpacing=0;targetPerimeterSpacing=0;endSize=10;startSize=10;exitX=0.675;exitY=1.115;exitDx=0;exitDy=0;exitPerimeter=0;entryX=0.791;entryY=0.02;entryDx=0;entryDy=0;rounded=0;entryPerimeter=0;" parent="WIyWlLk6GJQsqaUBKTNV-1" source="cfhBdmf0QNQa2BFEC72Y-86" target="cfhBdmf0QNQa2BFEC72Y-133" edge="1">
          <mxGeometry width="50" height="50" relative="1" as="geometry">
            <mxPoint x="1024" y="724" as="sourcePoint" />
            <mxPoint x="848" y="792" as="targetPoint" />
            <Array as="points">
              <mxPoint x="629" y="770" />
              <mxPoint x="885" y="770" />
            </Array>
          </mxGeometry>
        </mxCell>
        <mxCell id="cfhBdmf0QNQa2BFEC72Y-167" value="" style="endArrow=blockThin;html=1;fontFamily=Helvetica;fontSize=12;fontColor=default;strokeColor=default;startArrow=oval;startFill=1;endFill=1;strokeWidth=2;entryX=0.867;entryY=-0.006;entryDx=0;entryDy=0;edgeStyle=orthogonalEdgeStyle;sourcePerimeterSpacing=0;targetPerimeterSpacing=0;endSize=10;startSize=10;exitX=0.416;exitY=1.202;exitDx=0;exitDy=0;exitPerimeter=0;rounded=0;entryPerimeter=0;" parent="WIyWlLk6GJQsqaUBKTNV-1" source="cfhBdmf0QNQa2BFEC72Y-86" target="cfhBdmf0QNQa2BFEC72Y-118" edge="1">
          <mxGeometry width="50" height="50" relative="1" as="geometry">
            <mxPoint x="598" y="777" as="sourcePoint" />
            <mxPoint x="406" y="906" as="targetPoint" />
            <Array as="points">
              <mxPoint x="579" y="803" />
              <mxPoint x="612" y="803" />
              <mxPoint x="612" y="893" />
            </Array>
          </mxGeometry>
        </mxCell>
        <mxCell id="cfhBdmf0QNQa2BFEC72Y-175" value="&lt;font style=&quot;font-size: 16px;&quot;&gt;on schedule&lt;/font&gt;" style="text;html=1;align=center;verticalAlign=middle;resizable=0;points=[];autosize=1;strokeColor=none;fillColor=none;fontSize=12;fontFamily=Helvetica;fontColor=default;" parent="WIyWlLk6GJQsqaUBKTNV-1" vertex="1">
          <mxGeometry x="700" y="736" width="104" height="31" as="geometry" />
        </mxCell>
        <mxCell id="cfhBdmf0QNQa2BFEC72Y-95" value="Project" style="swimlane;fontStyle=0;childLayout=stackLayout;horizontal=1;startSize=24;horizontalStack=0;resizeParent=1;resizeParentMax=0;resizeLast=0;collapsible=1;marginBottom=0;whiteSpace=wrap;html=1;aspect=fixed;swimlaneBody=1;swimlaneHead=1;rounded=1;fontSize=16;align=left;" parent="WIyWlLk6GJQsqaUBKTNV-1" vertex="1">
          <mxGeometry x="853" y="578" width="165" height="122" as="geometry" />
        </mxCell>
        <mxCell id="cfhBdmf0QNQa2BFEC72Y-96" value="project_id" style="text;strokeColor=none;fillColor=none;align=left;verticalAlign=middle;spacingLeft=4;spacingRight=4;overflow=hidden;points=[[0,0.5],[1,0.5]];portConstraint=eastwest;rotatable=1;whiteSpace=wrap;html=1;movable=1;resizable=1;deletable=1;editable=1;locked=0;connectable=1;fontSize=16;" parent="cfhBdmf0QNQa2BFEC72Y-95" vertex="1">
          <mxGeometry y="24" width="165" height="30" as="geometry" />
        </mxCell>
        <mxCell id="cfhBdmf0QNQa2BFEC72Y-100" value="manager_id" style="text;strokeColor=none;fillColor=none;align=left;verticalAlign=middle;spacingLeft=4;spacingRight=4;overflow=hidden;points=[[0,0.5],[1,0.5]];portConstraint=eastwest;rotatable=0;whiteSpace=wrap;html=1;fontSize=16;" parent="cfhBdmf0QNQa2BFEC72Y-95" vertex="1">
          <mxGeometry y="54" width="165" height="30" as="geometry" />
        </mxCell>
        <mxCell id="cfhBdmf0QNQa2BFEC72Y-97" value="" style="line;strokeWidth=1;fillColor=none;align=left;verticalAlign=middle;spacingTop=-1;spacingLeft=3;spacingRight=3;rotatable=0;labelPosition=right;points=[];portConstraint=eastwest;strokeColor=inherit;fontFamily=Helvetica;fontSize=16;fontColor=default;startSize=20;html=1;" parent="cfhBdmf0QNQa2BFEC72Y-95" vertex="1">
          <mxGeometry y="84" width="165" height="8" as="geometry" />
        </mxCell>
        <mxCell id="cfhBdmf0QNQa2BFEC72Y-99" value="name" style="text;strokeColor=none;fillColor=none;align=left;verticalAlign=middle;spacingLeft=4;spacingRight=4;overflow=hidden;points=[[0,0.5],[1,0.5]];portConstraint=eastwest;rotatable=0;whiteSpace=wrap;html=1;fontSize=16;" parent="cfhBdmf0QNQa2BFEC72Y-95" vertex="1">
          <mxGeometry y="92" width="165" height="30" as="geometry" />
        </mxCell>
        <mxCell id="cfhBdmf0QNQa2BFEC72Y-177" value="" style="endArrow=oval;html=1;fontFamily=Helvetica;fontSize=12;fontColor=default;strokeColor=default;startArrow=oval;startFill=1;endFill=1;strokeWidth=2;entryX=1;entryY=0.5;entryDx=0;entryDy=0;edgeStyle=orthogonalEdgeStyle;sourcePerimeterSpacing=0;targetPerimeterSpacing=0;endSize=10;startSize=10;exitX=0;exitY=0.5;exitDx=0;exitDy=0;rounded=0;" parent="WIyWlLk6GJQsqaUBKTNV-1" source="cfhBdmf0QNQa2BFEC72Y-78" target="cfhBdmf0QNQa2BFEC72Y-114" edge="1">
          <mxGeometry width="50" height="50" relative="1" as="geometry">
            <mxPoint x="495.2359999999999" y="383.222" as="sourcePoint" />
            <mxPoint x="159" y="475" as="targetPoint" />
            <Array as="points">
              <mxPoint x="497" y="404" />
              <mxPoint x="189" y="404" />
              <mxPoint x="189" y="439" />
            </Array>
          </mxGeometry>
        </mxCell>
        <mxCell id="cfhBdmf0QNQa2BFEC72Y-178" value="&lt;font style=&quot;font-size: 16px;&quot;&gt;notification belongs &lt;br&gt;to the users&lt;/font&gt;" style="text;html=1;align=center;verticalAlign=middle;resizable=0;points=[];autosize=1;strokeColor=none;fillColor=none;fontSize=12;fontFamily=Helvetica;fontColor=default;" parent="WIyWlLk6GJQsqaUBKTNV-1" vertex="1">
          <mxGeometry x="171" y="664" width="155" height="50" as="geometry" />
        </mxCell>
        <mxCell id="cfhBdmf0QNQa2BFEC72Y-180" value="" style="endArrow=oval;html=1;fontFamily=Helvetica;fontSize=12;fontColor=default;strokeColor=default;startArrow=oval;startFill=1;endFill=1;strokeWidth=2;entryX=0.857;entryY=-0.122;entryDx=0;entryDy=0;edgeStyle=orthogonalEdgeStyle;sourcePerimeterSpacing=0;targetPerimeterSpacing=0;endSize=10;startSize=10;rounded=0;entryPerimeter=0;exitX=0;exitY=0.5;exitDx=0;exitDy=0;" parent="WIyWlLk6GJQsqaUBKTNV-1" target="cfhBdmf0QNQa2BFEC72Y-141" edge="1">
          <mxGeometry width="50" height="50" relative="1" as="geometry">
            <mxPoint x="497" y="720.9999999999998" as="sourcePoint" />
            <mxPoint x="78.80000000000018" y="806.0359999999998" as="targetPoint" />
            <Array as="points">
              <mxPoint x="140" y="721" />
            </Array>
          </mxGeometry>
        </mxCell>
        <mxCell id="cfhBdmf0QNQa2BFEC72Y-181" value="&lt;font style=&quot;font-size: 16px;&quot;&gt;users travel on business&lt;/font&gt;" style="text;html=1;align=center;verticalAlign=middle;resizable=0;points=[];autosize=1;strokeColor=none;fillColor=none;fontSize=12;fontFamily=Helvetica;fontColor=default;" parent="WIyWlLk6GJQsqaUBKTNV-1" vertex="1">
          <mxGeometry x="213" y="343" width="191" height="31" as="geometry" />
        </mxCell>
        <mxCell id="cfhBdmf0QNQa2BFEC72Y-184" value="" style="endArrow=blockThin;html=1;fontFamily=Helvetica;fontSize=12;fontColor=default;strokeColor=default;startArrow=oval;startFill=1;endFill=1;strokeWidth=2;edgeStyle=orthogonalEdgeStyle;sourcePerimeterSpacing=0;targetPerimeterSpacing=0;endSize=10;startSize=10;exitX=1;exitY=0.5;exitDx=0;exitDy=0;rounded=0;entryX=0.38;entryY=0.063;entryDx=0;entryDy=0;entryPerimeter=0;" parent="WIyWlLk6GJQsqaUBKTNV-1" source="cfhBdmf0QNQa2BFEC72Y-106" target="cfhBdmf0QNQa2BFEC72Y-78" edge="1">
          <mxGeometry width="50" height="50" relative="1" as="geometry">
            <mxPoint x="251" y="175" as="sourcePoint" />
            <mxPoint x="573" y="343" as="targetPoint" />
            <Array as="points">
              <mxPoint x="573" y="176" />
              <mxPoint x="573" y="392" />
            </Array>
          </mxGeometry>
        </mxCell>
        <mxCell id="cfhBdmf0QNQa2BFEC72Y-185" value="&lt;span style=&quot;font-size: 16px;&quot;&gt;belongs to&lt;/span&gt;" style="text;html=1;align=center;verticalAlign=middle;resizable=0;points=[];autosize=1;strokeColor=none;fillColor=none;fontSize=12;fontFamily=Helvetica;fontColor=default;" parent="WIyWlLk6GJQsqaUBKTNV-1" vertex="1">
          <mxGeometry x="267" y="142" width="92" height="31" as="geometry" />
        </mxCell>
        <mxCell id="cfhBdmf0QNQa2BFEC72Y-186" value="" style="endArrow=blockThin;html=1;fontFamily=Helvetica;fontSize=12;fontColor=default;strokeColor=default;startArrow=oval;startFill=1;endFill=1;strokeWidth=2;edgeStyle=orthogonalEdgeStyle;sourcePerimeterSpacing=0;targetPerimeterSpacing=0;endSize=10;startSize=10;exitX=1;exitY=0.5;exitDx=0;exitDy=0;entryX=0;entryY=0.5;entryDx=0;entryDy=0;rounded=0;" parent="WIyWlLk6GJQsqaUBKTNV-1" source="cfhBdmf0QNQa2BFEC72Y-159" target="cfhBdmf0QNQa2BFEC72Y-153" edge="1">
          <mxGeometry width="50" height="50" relative="1" as="geometry">
            <mxPoint x="1224" y="-152" as="sourcePoint" />
            <mxPoint x="1419" y="-26" as="targetPoint" />
            <Array as="points">
              <mxPoint x="1332" y="94" />
              <mxPoint x="1419" y="94" />
              <mxPoint x="1419" y="71" />
            </Array>
          </mxGeometry>
        </mxCell>
        <mxCell id="cfhBdmf0QNQa2BFEC72Y-188" value="" style="endArrow=blockThin;html=1;fontFamily=Helvetica;fontSize=12;fontColor=default;strokeColor=default;startArrow=oval;startFill=1;endFill=1;strokeWidth=2;edgeStyle=orthogonalEdgeStyle;sourcePerimeterSpacing=0;targetPerimeterSpacing=0;endSize=10;startSize=10;exitX=0;exitY=0.5;exitDx=0;exitDy=0;entryX=1;entryY=0.5;entryDx=0;entryDy=0;rounded=0;" parent="WIyWlLk6GJQsqaUBKTNV-1" source="cfhBdmf0QNQa2BFEC72Y-151" target="cfhBdmf0QNQa2BFEC72Y-125" edge="1">
          <mxGeometry width="50" height="50" relative="1" as="geometry">
            <mxPoint x="812" y="-89" as="sourcePoint" />
            <mxPoint x="1007" y="37" as="targetPoint" />
            <Array as="points">
              <mxPoint x="1007" y="94" />
              <mxPoint x="1007" y="71" />
            </Array>
          </mxGeometry>
        </mxCell>
        <mxCell id="cfhBdmf0QNQa2BFEC72Y-189" value="&lt;font style=&quot;font-size: 16px;&quot;&gt;is&lt;/font&gt;" style="text;html=1;align=center;verticalAlign=middle;resizable=0;points=[];autosize=1;strokeColor=none;fillColor=none;fontSize=12;fontFamily=Helvetica;fontColor=default;" parent="WIyWlLk6GJQsqaUBKTNV-1" vertex="1">
          <mxGeometry x="1388" y="65" width="30" height="31" as="geometry" />
        </mxCell>
        <mxCell id="cfhBdmf0QNQa2BFEC72Y-190" value="&lt;font style=&quot;font-size: 16px;&quot;&gt;consists of&lt;/font&gt;" style="text;html=1;align=center;verticalAlign=middle;resizable=0;points=[];autosize=1;strokeColor=none;fillColor=none;fontSize=12;fontFamily=Helvetica;fontColor=default;" parent="WIyWlLk6GJQsqaUBKTNV-1" vertex="1">
          <mxGeometry x="876" y="28" width="94" height="31" as="geometry" />
        </mxCell>
        <mxCell id="cfhBdmf0QNQa2BFEC72Y-191" value="" style="endArrow=blockThin;html=1;fontFamily=Helvetica;fontSize=12;fontColor=default;strokeColor=default;startArrow=oval;startFill=1;endFill=1;strokeWidth=2;edgeStyle=orthogonalEdgeStyle;sourcePerimeterSpacing=0;targetPerimeterSpacing=0;endSize=10;startSize=10;exitX=0.476;exitY=0.985;exitDx=0;exitDy=0;exitPerimeter=0;rounded=0;dashed=1;entryX=0.488;entryY=-0.033;entryDx=0;entryDy=0;entryPerimeter=0;" parent="WIyWlLk6GJQsqaUBKTNV-1" source="cfhBdmf0QNQa2BFEC72Y-156" target="cfhBdmf0QNQa2BFEC72Y-46" edge="1">
          <mxGeometry width="50" height="50" relative="1" as="geometry">
            <mxPoint x="929" y="290" as="sourcePoint" />
            <mxPoint x="1245" y="331" as="targetPoint" />
            <Array as="points">
              <mxPoint x="1240" y="282" />
              <mxPoint x="1243" y="282" />
            </Array>
          </mxGeometry>
        </mxCell>
        <mxCell id="cfhBdmf0QNQa2BFEC72Y-192" value="&lt;font style=&quot;font-size: 16px;&quot;&gt;contains&lt;/font&gt;" style="text;html=1;align=center;verticalAlign=middle;resizable=0;points=[];autosize=1;strokeColor=none;fillColor=none;fontSize=12;fontFamily=Helvetica;fontColor=default;" parent="WIyWlLk6GJQsqaUBKTNV-1" vertex="1">
          <mxGeometry x="1253" y="287" width="78" height="31" as="geometry" />
        </mxCell>
        <mxCell id="cfhBdmf0QNQa2BFEC72Y-193" value="" style="endArrow=blockThin;html=1;fontFamily=Helvetica;fontSize=12;fontColor=default;strokeColor=default;startArrow=oval;startFill=1;endFill=1;strokeWidth=2;edgeStyle=orthogonalEdgeStyle;sourcePerimeterSpacing=0;targetPerimeterSpacing=0;endSize=10;startSize=10;exitX=0.491;exitY=1.027;exitDx=0;exitDy=0;exitPerimeter=0;rounded=0;entryX=0.668;entryY=-0.26;entryDx=0;entryDy=0;entryPerimeter=0;" parent="WIyWlLk6GJQsqaUBKTNV-1" source="cfhBdmf0QNQa2BFEC72Y-128" target="cfhBdmf0QNQa2BFEC72Y-78" edge="1">
          <mxGeometry width="50" height="50" relative="1" as="geometry">
            <mxPoint x="764" y="229" as="sourcePoint" />
            <mxPoint x="629" y="316" as="targetPoint" />
            <Array as="points">
              <mxPoint x="674" y="241" />
              <mxPoint x="635" y="241" />
              <mxPoint x="635" y="260" />
              <mxPoint x="629" y="260" />
            </Array>
          </mxGeometry>
        </mxCell>
        <mxCell id="cfhBdmf0QNQa2BFEC72Y-194" value="&lt;font style=&quot;font-size: 16px;&quot;&gt;created by&lt;/font&gt;" style="text;html=1;align=center;verticalAlign=middle;resizable=0;points=[];autosize=1;strokeColor=none;fillColor=none;fontSize=12;fontFamily=Helvetica;fontColor=default;" parent="WIyWlLk6GJQsqaUBKTNV-1" vertex="1">
          <mxGeometry x="633" y="301" width="93" height="31" as="geometry" />
        </mxCell>
        <mxCell id="cfhBdmf0QNQa2BFEC72Y-195" value="" style="endArrow=blockThin;html=1;fontFamily=Helvetica;fontSize=12;fontColor=default;strokeColor=default;startArrow=oval;startFill=1;endFill=1;strokeWidth=2;edgeStyle=orthogonalEdgeStyle;sourcePerimeterSpacing=0;targetPerimeterSpacing=0;endSize=10;startSize=10;exitX=0;exitY=0.5;exitDx=0;exitDy=0;rounded=0;entryX=1;entryY=0.5;entryDx=0;entryDy=0;" parent="WIyWlLk6GJQsqaUBKTNV-1" source="cfhBdmf0QNQa2BFEC72Y-100" target="cfhBdmf0QNQa2BFEC72Y-89" edge="1">
          <mxGeometry width="50" height="50" relative="1" as="geometry">
            <mxPoint x="785" y="398" as="sourcePoint" />
            <mxPoint x="717" y="623" as="targetPoint" />
            <Array as="points">
              <mxPoint x="853" y="635" />
              <mxPoint x="717" y="635" />
              <mxPoint x="717" y="631" />
            </Array>
          </mxGeometry>
        </mxCell>
        <mxCell id="cfhBdmf0QNQa2BFEC72Y-196" value="&lt;font style=&quot;font-size: 16px;&quot;&gt;under&lt;br&gt;control&lt;/font&gt;" style="text;html=1;align=center;verticalAlign=middle;resizable=0;points=[];autosize=1;strokeColor=none;fillColor=none;fontSize=12;fontFamily=Helvetica;fontColor=default;" parent="WIyWlLk6GJQsqaUBKTNV-1" vertex="1">
          <mxGeometry x="757" y="572" width="66" height="50" as="geometry" />
        </mxCell>
        <mxCell id="cfhBdmf0QNQa2BFEC72Y-197" value="" style="endArrow=blockThin;html=1;fontFamily=Helvetica;fontSize=12;fontColor=default;strokeColor=default;startArrow=oval;startFill=1;endFill=1;strokeWidth=2;edgeStyle=orthogonalEdgeStyle;sourcePerimeterSpacing=0;targetPerimeterSpacing=0;endSize=10;startSize=10;exitX=0.553;exitY=1.179;exitDx=0;exitDy=0;exitPerimeter=0;rounded=0;entryX=0.84;entryY=-0.173;entryDx=0;entryDy=0;entryPerimeter=0;" parent="WIyWlLk6GJQsqaUBKTNV-1" source="cfhBdmf0QNQa2BFEC72Y-61" target="cfhBdmf0QNQa2BFEC72Y-102" edge="1">
          <mxGeometry width="50" height="50" relative="1" as="geometry">
            <mxPoint x="946" y="763" as="sourcePoint" />
            <mxPoint x="1251" y="789" as="targetPoint" />
            <Array as="points">
              <mxPoint x="1251" y="789" />
              <mxPoint x="1289" y="789" />
            </Array>
          </mxGeometry>
        </mxCell>
        <mxCell id="cfhBdmf0QNQa2BFEC72Y-198" value="&lt;font style=&quot;font-size: 16px;&quot;&gt;is&lt;/font&gt;" style="text;html=1;align=center;verticalAlign=middle;resizable=0;points=[];autosize=1;strokeColor=none;fillColor=none;fontSize=12;fontFamily=Helvetica;fontColor=default;" parent="WIyWlLk6GJQsqaUBKTNV-1" vertex="1">
          <mxGeometry x="1253" y="750" width="30" height="31" as="geometry" />
        </mxCell>
        <mxCell id="cfhBdmf0QNQa2BFEC72Y-199" value="" style="endArrow=blockThin;html=1;fontFamily=Helvetica;fontSize=12;fontColor=default;strokeColor=default;startArrow=oval;startFill=1;endFill=1;strokeWidth=2;edgeStyle=orthogonalEdgeStyle;sourcePerimeterSpacing=0;targetPerimeterSpacing=0;endSize=10;startSize=10;exitX=0;exitY=0.5;exitDx=0;exitDy=0;entryX=1;entryY=0.5;entryDx=0;entryDy=0;rounded=0;dashed=1;" parent="WIyWlLk6GJQsqaUBKTNV-1" source="cfhBdmf0QNQa2BFEC72Y-48" target="cfhBdmf0QNQa2BFEC72Y-96" edge="1">
          <mxGeometry width="50" height="50" relative="1" as="geometry">
            <mxPoint x="920" y="449" as="sourcePoint" />
            <mxPoint x="1115" y="575" as="targetPoint" />
            <Array as="points">
              <mxPoint x="1110" y="505" />
              <mxPoint x="1110" y="617" />
            </Array>
          </mxGeometry>
        </mxCell>
        <mxCell id="cfhBdmf0QNQa2BFEC72Y-200" value="&lt;font style=&quot;font-size: 16px;&quot;&gt;belongs to&lt;/font&gt;" style="text;html=1;align=center;verticalAlign=middle;resizable=0;points=[];autosize=1;strokeColor=none;fillColor=none;fontSize=12;fontFamily=Helvetica;fontColor=default;" parent="WIyWlLk6GJQsqaUBKTNV-1" vertex="1">
          <mxGeometry x="1048" y="617" width="92" height="31" as="geometry" />
        </mxCell>
        <mxCell id="cfhBdmf0QNQa2BFEC72Y-202" value="" style="endArrow=blockThin;html=1;fontFamily=Helvetica;fontSize=12;fontColor=default;strokeColor=default;startArrow=oval;startFill=1;endFill=1;strokeWidth=2;edgeStyle=orthogonalEdgeStyle;sourcePerimeterSpacing=0;targetPerimeterSpacing=0;endSize=10;startSize=10;exitX=0;exitY=0.5;exitDx=0;exitDy=0;entryX=1;entryY=0.5;entryDx=0;entryDy=0;rounded=0;dashed=1;" parent="WIyWlLk6GJQsqaUBKTNV-1" source="cfhBdmf0QNQa2BFEC72Y-49" target="cfhBdmf0QNQa2BFEC72Y-78" edge="1">
          <mxGeometry width="50" height="50" relative="1" as="geometry">
            <mxPoint x="864" y="391" as="sourcePoint" />
            <mxPoint x="1059" y="517" as="targetPoint" />
            <Array as="points">
              <mxPoint x="1156" y="445" />
              <mxPoint x="1156" y="413" />
            </Array>
          </mxGeometry>
        </mxCell>
        <mxCell id="cfhBdmf0QNQa2BFEC72Y-203" value="&lt;font style=&quot;font-size: 16px;&quot;&gt;created by/executed by&lt;/font&gt;" style="text;html=1;align=center;verticalAlign=middle;resizable=0;points=[];autosize=1;strokeColor=none;fillColor=none;fontSize=12;fontFamily=Helvetica;fontColor=default;" parent="WIyWlLk6GJQsqaUBKTNV-1" vertex="1">
          <mxGeometry x="835" y="379" width="183" height="31" as="geometry" />
        </mxCell>
      </root>
    </mxGraphModel>
  </diagram>
</mxfile>
